<svg width="28" height="28" viewBox="0 0 28 28" fill="none" xmlns="http://www.w3.org/2000/svg">
    <g filter="url(#filter0_b_4_1096)">
        <rect width="28" height="28" rx="14" fill="white" fill-opacity="0.6"/>
        <path d="M17.9062 7.125C16.293 7.125 14.8805 7.81875 14 8.99141C13.1195 7.81875 11.707 7.125 10.0938 7.125C8.80955 7.12645 7.57837 7.63723 6.6703 8.5453C5.76223 9.45337 5.25145 10.6846 5.25 11.9688C5.25 17.4375 13.3586 21.8641 13.7039 22.0469C13.7949 22.0958 13.8967 22.1215 14 22.1215C14.1033 22.1215 14.2051 22.0958 14.2961 22.0469C14.6414 21.8641 22.75 17.4375 22.75 11.9688C22.7486 10.6846 22.2378 9.45337 21.3297 8.5453C20.4216 7.63723 19.1904 7.12645 17.9062 7.125ZM14 20.7812C12.5734 19.95 6.5 16.1633 6.5 11.9688C6.50124 11.016 6.88026 10.1026 7.55396 9.42896C8.22765 8.75526 9.14101 8.37624 10.0938 8.375C11.6133 8.375 12.8891 9.18438 13.4219 10.4844C13.469 10.599 13.5491 10.6971 13.652 10.7661C13.7549 10.8351 13.8761 10.8719 14 10.8719C14.1239 10.8719 14.2451 10.8351 14.348 10.7661C14.4509 10.6971 14.531 10.599 14.5781 10.4844C15.1109 9.18203 16.3867 8.375 17.9062 8.375C18.859 8.37624 19.7724 8.75526 20.446 9.42896C21.1197 10.1026 21.4988 11.016 21.5 11.9688C21.5 16.157 15.425 19.9492 14 20.7812Z" fill="black"/>
    </g>
    <defs>
        <filter id="filter0_b_4_1096" x="-10" y="-10" width="48" height="48" filterUnits="userSpaceOnUse" color-interpolation-filters="sRGB">
            <feFlood flood-opacity="0" result="BackgroundImageFix"/>
            <feGaussianBlur in="BackgroundImageFix" stdDeviation="5"/>
            <feComposite in2="SourceAlpha" operator="in" result="effect1_backgroundBlur_4_1096"/>
            <feBlend mode="normal" in="SourceGraphic" in2="effect1_backgroundBlur_4_1096" result="shape"/>
        </filter>
    </defs>
</svg>
