<svg width="19" height="19" viewBox="0 0 19 19" fill="none" xmlns="http://www.w3.org/2000/svg">
    <path d="M17.7593 1.24065C17.6021 1.08357 17.4059 0.971224 17.1908 0.915197C16.9758 0.85917 16.7497 0.861484 16.5358 0.9219H16.5241L1.52879 5.4719C1.28469 5.5421 1.06777 5.68499 0.906913 5.88155C0.746054 6.07811 0.64889 6.31901 0.628359 6.57217C0.607828 6.82533 0.664904 7.07873 0.791988 7.29864C0.919072 7.51855 1.11013 7.69453 1.33973 7.80315L8.02879 10.9711L11.1968 17.6602C11.2968 17.8744 11.456 18.0555 11.6556 18.1822C11.8552 18.3088 12.0869 18.3758 12.3233 18.375C12.3593 18.375 12.3952 18.3735 12.4311 18.3703C12.6834 18.3499 12.9234 18.2528 13.1189 18.0921C13.3144 17.9314 13.4561 17.7147 13.5249 17.4711L18.0718 2.47581C18.0718 2.4719 18.0718 2.46799 18.0718 2.46409C18.133 2.25078 18.1363 2.02502 18.0813 1.81001C18.0264 1.595 17.9153 1.39848 17.7593 1.24065ZM12.3304 17.1133L12.3264 17.1242L9.25145 10.6328L12.9421 6.94143C13.0543 6.82327 13.116 6.66592 13.1139 6.50295C13.1118 6.33997 13.0462 6.18426 12.9309 6.06901C12.8157 5.95376 12.6599 5.88809 12.497 5.886C12.334 5.88391 12.1766 5.94557 12.0585 6.05784L8.36707 9.74846L1.87488 6.67346H1.88582L16.8749 2.12502L12.3304 17.1133Z" fill="white"/>
</svg>
